<?xml version="1.0" encoding="utf-8"?>
<!-- Generator: Adobe Illustrator 26.1.0, SVG Export Plug-In . SVG Version: 6.00 Build 0)  -->
<svg version="1.1" id="Layer_1" xmlns="http://www.w3.org/2000/svg" xmlns:xlink="http://www.w3.org/1999/xlink" x="0px" y="0px"
	 viewBox="0 0 1805.3 610.7" style="enable-background:new 0 0 1805.3 610.7;" xml:space="preserve">
<style type="text/css">
	.st0{fill:#FEFEFE;}
	.st1{fill:#4285F3;}
	.st2{fill:#FABB06;}
	.st3{fill:#E94335;}
	.st4{fill:#35A854;}
	.st5{fill:#FEFDFD;}
</style>
<g>
	<path class="st0" d="M0,0c601.8,0,1203.6,0,1805.3,0c0,203.6,0,407.1,0,610.7c-601.8,0-1203.6,0-1805.3,0C0,407.2,0,203.6,0,0z
		 M390.3,65.8c-0.3-0.3-0.7-0.8-1.2-1.3c-14.8-13.9-30.9-26.1-48.8-35.6C291.7,3.1,240.2-2.9,186.9,8.1
		C131.5,19.6,85.8,48,51.1,92.6C7.4,148.8-8.2,212.5,8.6,281.8c19.6,81.1,71.1,135.3,148.7,164.7c29.2,11.1,59.8,14.6,91,13
		c21.8-1.2,43.2-4.3,63.8-11.5c49.1-17.2,87.2-47.9,111.7-94.1c20.9-39.4,26.2-82,22.9-126c-0.4-5.2-1.4-10.4-2-15.4
		c-70.5,0-140.4,0-210.3,0c0,20.9,0,41.5,0,62.4c49.7,0,99.1,0,148.8,0c-2,16.3-5.9,31.7-12.6,46.3c-13.6,29.3-37,48.7-65.6,62.1
		c-29.2,13.6-60.1,16.7-91.9,12.9c-34.7-4.2-65.2-18.1-90.2-42.3c-45.2-43.7-60.7-97.3-48.5-158.5c8.2-41,30-74.1,63.9-98.7
		c32.4-23.6,68.9-33.3,108.8-30.5c29.7,2,56.7,11.5,80.8,28.7c6.5,4.7,12.7,9.9,18.7,14.7C361.2,94.9,375.7,80.4,390.3,65.8z
		 M1121.2,505.2c16.3,35.8,41.5,62.1,77.8,76.7c30.2,12.1,61.4,12.7,92.7,5.2c36.3-8.6,64-29,81.5-62.3
		c12.8-24.3,18.1-50.6,18.2-77.7c0.4-89.8,0.2-179.6,0.2-269.4c0-0.9-0.2-1.8-0.3-2.7c-20.4,0-40.6,0-61.1,0c0,8,0,15.8,0,24.7
		c-1.8-1.3-2.9-2-3.8-2.8c-4.4-3.8-8.5-8.2-13.2-11.5c-27.6-19.2-58.1-23.3-90.4-16.3c-24.2,5.2-45.4,16.4-63.5,33.2
		c-39,36.2-55,81.1-47.9,133.7c3.5,26.2,14.2,49.8,31,70.3c26.5,32.2,60.3,51.3,102.3,53.5c31.8,1.6,60-7.7,82.2-31.7
		c0.7-0.8,1.9-1.1,3.4-2c-0.1,16.1,0.8,31.4-2.2,46.5c-3,14.9-8.4,28.7-19.2,39.7c-19.1,19.4-43,24.1-68.8,20.7
		c-25-3.3-42.9-17.8-56-38.7c-2.5-3.9-4.5-8.1-6.8-12.3C1158.7,489.5,1140.2,497.2,1121.2,505.2z M791.2,312.6
		c-0.3,82.4,64.2,147,147.1,147.4c83.1,0.4,147.7-63.6,148.1-146.6c0.4-83.2-63.7-147.4-147.3-147.6
		C855.9,165.5,791.5,229.5,791.2,312.6z M472.8,312.7c-0.2,82.7,64,146.9,147.1,147.2c83.2,0.4,147.9-64,148-147.1
		c0-83.1-64-147-147.4-147.1C537.2,165.6,473,229.5,472.8,312.7z M1594.7,357.4c65.8-27.2,131.2-54.3,196.8-81.5
		c-4.1-9.7-7.8-19.2-12-28.5c-2.5-5.5-5.5-10.9-8.7-16.1c-30.4-49.8-79.9-73.3-135.6-63.6c-42.9,7.4-75,30.7-96.4,68.5
		c-11.4,20.2-17,42.2-18.5,65.4c-1.7,26.8,2.2,52.6,14.2,76.6c25.9,51.8,68.6,78.5,126,81.4c38.1,1.9,72.1-10,101.3-35
		c10.2-8.7,19.1-18.6,26.8-30c-16.7-11.1-33.3-22.2-50.1-33.4c-17.7,26-41.4,41-73.5,40.7C1632.6,401.6,1609.6,386.4,1594.7,357.4z
		 M1492.6,450.9c0-143.8,0-287.3,0-430.7c-21,0-41.8,0-62.6,0c0,143.7,0,287.1,0,430.7C1450.9,450.9,1471.7,450.9,1492.6,450.9z"/>
	<path class="st1" d="M390.3,65.8c-14.7,14.6-29.2,29.1-43.7,43.7c-6-4.7-12.1-10-18.7-14.7c-24.2-17.3-51.2-26.7-80.8-28.7
		c-39.9-2.8-76.4,6.9-108.8,30.5c-33.9,24.6-55.7,57.7-63.9,98.7c-12.2,61.2,3.4,114.8,48.5,158.5c25,24.2,55.5,38.1,90.2,42.3
		c31.7,3.8,62.7,0.7,91.9-12.9c28.6-13.3,52-32.7,65.6-62.1c6.8-14.6,10.6-30,12.6-46.3c-49.7,0-99.1,0-148.8,0
		c0-20.9,0-41.5,0-62.4c69.9,0,139.8,0,210.3,0c0.7,5.1,1.6,10.2,2,15.4c3.3,44-2,86.6-22.9,126c-24.4,46.2-62.6,76.9-111.7,94.1
		c-20.6,7.2-42,10.4-63.8,11.5c-31.2,1.7-61.8-1.9-91-13C79.7,417.2,28.2,362.9,8.6,281.9c-16.8-69.3-1.2-133,42.5-189.2
		c34.7-44.6,80.4-73,135.8-84.5c53.3-11,104.8-5,153.4,20.8c18,9.5,34,21.7,48.8,35.6C389.6,65,390.1,65.5,390.3,65.8z"/>
	<path class="st1" d="M1121.2,505.2c19-7.9,37.5-15.6,56.1-23.4c2.3,4.2,4.3,8.4,6.8,12.3c13.1,20.9,31,35.4,56,38.7
		c25.8,3.4,49.7-1.3,68.8-20.7c10.8-11,16.2-24.8,19.2-39.7c3-15.1,2.1-30.4,2.2-46.5c-1.5,0.8-2.7,1.2-3.4,2
		c-22.2,24.1-50.4,33.4-82.2,31.7c-42-2.2-75.8-21.3-102.3-53.5c-16.8-20.5-27.5-44-31-70.3c-7-52.6,8.9-97.5,47.9-133.7
		c18.1-16.8,39.4-28,63.5-33.2c32.3-7,62.8-2.9,90.4,16.3c4.8,3.3,8.8,7.7,13.2,11.5c0.9,0.8,2,1.5,3.8,2.8c0-9,0-16.8,0-24.7
		c20.5,0,40.7,0,61.1,0c0.1,0.9,0.3,1.8,0.3,2.7c0,89.8,0.2,179.6-0.2,269.4c-0.1,27.1-5.5,53.4-18.2,77.7
		c-17.5,33.3-45.1,53.7-81.5,62.3c-31.3,7.4-62.5,6.9-92.7-5.2C1162.7,567.2,1137.6,540.9,1121.2,505.2z M1334.8,316.9
		c0-19.8-3.1-35.7-11-50.4c-12.8-24-32.2-39.6-59.8-42.1c-31.6-3-56.5,10-74.2,36.1c-13.2,19.4-17.4,41.2-14.8,64.4
		c2.7,24.3,13,44.6,32.3,60c31.9,25.5,76.5,22.5,103.9-7.1C1328,359.7,1334.5,337.7,1334.8,316.9z"/>
	<path class="st2" d="M791.2,312.6c0.3-83.1,64.8-147.1,147.9-146.9c83.6,0.2,147.7,64.4,147.3,147.6c-0.4,83-65,147-148.1,146.6
		C855.3,459.6,790.8,395,791.2,312.6z M1021.9,310.6c-0.5-4.2-0.9-10.6-2-17c-0.9-5.2-2.4-10.3-4.2-15.2
		c-21-57.1-92.5-73.2-134.6-30.5c-32.2,32.7-34,90.9-3.8,125.5c27.8,31.9,73.4,38.1,107.5,13.9
		C1010.3,369.4,1021.2,343.5,1021.9,310.6z"/>
	<path class="st3" d="M472.8,312.7c0.2-83.2,64.3-147.1,147.6-147c83.5,0.1,147.5,64,147.4,147.1c0,83.1-64.8,147.4-148,147.1
		C536.8,459.6,472.6,395.4,472.8,312.7z M621.1,402c24.5-0.6,45.7-10,61.4-29.6c22.9-28.5,26.8-60.9,14.4-94.5
		c-11.4-30.9-34.4-49.7-67.4-53.4c-31.2-3.6-56.9,8.2-75.2,33.7c-17.6,24.5-20.8,52.1-13.4,80.9C550.4,376.4,583.4,402.2,621.1,402z
		"/>
	<path class="st3" d="M1594.7,357.4c14.8,29,37.8,44.2,70.2,44.5c32,0.3,55.7-14.7,73.5-40.7c16.8,11.2,33.4,22.3,50.1,33.4
		c-7.6,11.4-16.6,21.3-26.8,30c-29.1,25-63.1,36.9-101.3,35c-57.4-2.9-100.1-29.6-126-81.4c-12-24-15.9-49.8-14.2-76.6
		c1.5-23.2,7.1-45.1,18.5-65.4c21.4-37.8,53.5-61.1,96.4-68.5c55.7-9.7,105.3,13.8,135.6,63.6c3.2,5.2,6.2,10.5,8.7,16.1
		c4.2,9.3,7.9,18.8,12,28.5C1725.9,303.2,1660.5,330.2,1594.7,357.4z M1715.7,253.7c-1.6-2.8-2.7-5.4-4.3-7.6
		c-14-18.7-33.8-25.6-55.9-23c-33.9,4-56.4,23.4-67.6,55.7c-3.2,9.3-4.3,19.1-3.8,29.5C1628.2,290.2,1671.7,272,1715.7,253.7z"/>
	<path class="st4" d="M1492.6,450.9c-20.9,0-41.7,0-62.6,0c0-143.6,0-287,0-430.7c20.9,0,41.6,0,62.6,0
		C1492.6,163.5,1492.6,306.9,1492.6,450.9z"/>
	<path class="st0" d="M1334.8,316.9c-0.3,20.9-6.9,42.9-23.6,60.9c-27.4,29.6-72,32.6-103.9,7.1c-19.2-15.3-29.5-35.7-32.3-60
		c-2.6-23.2,1.6-45,14.8-64.4c17.7-26.1,42.6-39.1,74.2-36.1c27.5,2.6,46.9,18.2,59.8,42.1C1331.7,281.2,1334.8,297,1334.8,316.9z"
		/>
	<path class="st0" d="M1021.9,310.6c-0.7,32.9-11.6,58.7-37.1,76.8c-34.1,24.1-79.7,18-107.5-13.9c-30.2-34.7-28.4-92.8,3.8-125.5
		c42.1-42.7,113.6-26.5,134.6,30.5c1.8,4.9,3.3,10.1,4.2,15.2C1021.1,300,1021.5,306.4,1021.9,310.6z"/>
	<path class="st0" d="M621.1,402c-37.7,0.1-70.7-25.8-80.2-62.9c-7.4-28.8-4.2-56.4,13.4-80.9c18.3-25.5,44-37.3,75.2-33.7
		c33,3.8,56,22.5,67.4,53.4c12.4,33.6,8.5,66-14.4,94.5C666.8,392,645.6,401.5,621.1,402z"/>
	<path class="st5" d="M1715.7,253.7c-44,18.3-87.6,36.3-131.6,54.6c-0.5-10.4,0.6-20.2,3.8-29.5c11.1-32.3,33.7-51.7,67.6-55.7
		c22.1-2.6,41.8,4.3,55.9,23C1713.1,248.3,1714.2,251,1715.7,253.7z"/>
</g>
</svg>
