<?xml version="1.0" encoding="utf-8"?>
<!-- Generator: Adobe Illustrator 26.1.0, SVG Export Plug-In . SVG Version: 6.00 Build 0)  -->
<svg version="1.1" id="Layer_1" xmlns="http://www.w3.org/2000/svg" xmlns:xlink="http://www.w3.org/1999/xlink" x="0px" y="0px"
	 viewBox="0 0 48 48" style="enable-background:new 0 0 48 48;" xml:space="preserve">
<style type="text/css">
	.st0{fill:#FFFFFF;}
	.st1{fill:#FFC720;}
	.st2{fill:#FF5019;}
	.st3{fill:#56AF59;}
	.st4{fill:#2C7FD2;}
</style>
<g>
	<circle class="st0" cx="24" cy="24" r="24"/>
	<g>
		<path class="st1" d="M42.4,20.3h-1.5v-0.1H24v7.6h10.6c-1.5,4.4-5.7,7.6-10.6,7.6c-6.2,0-11.2-5.1-11.2-11.2s5-11.3,11.2-11.3
			c2.9,0,5.4,1.1,7.5,2.9l5.3-5.3C33.3,7.3,28.9,5.4,24,5.4C13.6,5.2,5.2,13.6,5.2,24S13.6,42.8,24,42.8S42.8,34.4,42.8,24
			C42.8,22.7,42.7,21.5,42.4,20.3z"/>
		<path class="st2" d="M7.3,15.3l6.4,4.6c0.1-0.2,0.2-0.4,0.3-0.6c0.1-0.2,0.2-0.4,0.3-0.7c0.3-0.4,0.5-0.9,0.8-1.3
			c0.6-0.8,1.3-1.5,2-2.1c1.9-1.5,4.2-2.4,6.9-2.4c2.9,0,5.4,1.1,7.5,2.9l5.3-5.3C33.3,7.4,28.9,5.3,24,5.3
			C16.8,5.2,10.5,9.2,7.3,15.3z"/>
		<path class="st3" d="M24,42.8c4.8,0,9.2-1.9,12.6-4.9L30.8,33c-1.9,1.4-4.3,2.3-6.8,2.3c-4.9,0-9.1-3.2-10.6-7.5l-6.2,4.7
			C10.4,38.7,16.7,42.8,24,42.8z"/>
		<path class="st4" d="M42.4,20.2h-1.5l0,0H24v7.6h10.6c-0.8,2.1-2.1,3.9-3.8,5.2l0,0l5.8,4.9c-0.4,0.4,6.2-4.5,6.2-13.9
			C42.8,22.7,42.7,21.5,42.4,20.2z"/>
	</g>
</g>
</svg>
